<?xml version="1.0" encoding="utf-8"?>
<!-- Generator: Adobe Illustrator 25.2.3, SVG Export Plug-In . SVG Version: 6.00 Build 0)  -->
<svg version="1.1" id="Layer_1" xmlns="http://www.w3.org/2000/svg" xmlns:xlink="http://www.w3.org/1999/xlink" x="0px" y="0px"
	 viewBox="0 0 48 48" style="enable-background:new 0 0 48 48;" xml:space="preserve">
<style type="text/css">
	.st0{fill:#FFFFFF;}
	.st1{fill:none;stroke:#C1B1FF;stroke-width:0.7403;stroke-linecap:round;stroke-miterlimit:10;}
	.st2{fill:none;stroke:#504EFF;stroke-width:0.7403;stroke-linecap:round;stroke-linejoin:round;stroke-miterlimit:10;}
	.st3{fill:none;stroke:#C1B1FF;stroke-width:0.7403;stroke-miterlimit:10;}
	.st4{fill:none;stroke:#504EFF;stroke-width:0.7403;stroke-miterlimit:10;}
	.st5{fill:none;stroke:#504EFF;
	     stroke-width:0.5787;stroke-linecap:round;stroke-linejoin:round;stroke-miterlimit:10;}
</style>
<rect class="st0" width="48" height="48"/>
<g>
	<path class="st1" d="M18.9,22.7c-0.2-1.1-1.3-1.8-2.4-1.5"/>
	<path class="st1" d="M29.7,14.2c-0.2-1.1-1.3-1.8-2.4-1.5"/>
	<path class="st2" d="M18.2,38.2h4.4"/>
	<path class="st2" d="M20.1,11.5l-2.7-3.1h-2"/>
	<path class="st2" d="M14.2,9.5c0.6,0,1.1-0.5,1.1-1.1s-0.5-1.1-1.1-1.1c-0.6,0-1.1,0.5-1.1,1.1S13.6,9.5,14.2,9.5z"/>
	<path class="st3" d="M18.3,29.1c1.1,0,2-0.9,2-2c0-1.1-0.9-2-2-2c-1.1,0-2,0.9-2,2C16.3,28.2,17.2,29.1,18.3,29.1z"/>
	<path class="st1" d="M25.2,18.8c-0.9-0.2-1.4-1.1-1.2-2c0.2-0.9,1.1-1.4,1.9-1.2"/>
	<path class="st1" d="M18,16.7c0.4,0.8,1.3,0.9,2.1,0.4c0.8-0.4,0.5-1.1,0.7-2c0.1-2,2.7-1.5,2.7-1.5"/>
	<path class="st4" d="M18.3,31.1c2.2,0,3.9-1.8,3.9-3.9c0-2.2-1.8-3.9-3.9-3.9s-3.9,1.8-3.9,3.9C14.4,29.3,16.1,31.1,18.3,31.1z"/>
	<path class="st2" d="M14.9,14.3h-4.6"/>
	<path class="st2" d="M9.1,15.3c0.6,0,1.1-0.5,1.1-1.1c0-0.6-0.5-1.1-1.1-1.1c-0.6,0-1.1,0.5-1.1,1.1C8,14.8,8.5,15.3,9.1,15.3z"/>
	<path class="st2" d="M13.9,20.6h-2.7"/>
	<path class="st2" d="M10,21.6c0.6,0,1.1-0.5,1.1-1.1c0-0.6-0.5-1.1-1.1-1.1c-0.6,0-1.1,0.5-1.1,1.1C8.9,21.2,9.4,21.6,10,21.6z"/>
	<path class="st2" d="M21.5,22.5l-1.2,1.1"/>
	<path class="st2" d="M14.6,24.7c0,0-3.4-4.2,1.9-5.9c0,0-1.2-1.1-1.4-2.7c-0.3-1.9,0.4-4.9,5.6-4.3c0,0,0.4-1.3,1.3-1.9
		c0.7-0.4,1.3-0.7,1.8-0.8c0.3,0,1,0,1.5,0.1c0.5,0.2,1.1,0.5,1.9,1.2c0,0,3.1-2.2,5.6,1.4L22.9,21"/>
	<path class="st2" d="M18.3,31.1l-0.1,9.5l11.2,0.1v-2.2"/>
	<path class="st2" d="M21.8,25.6c0,0,4.5-1.8,4.5,7.1c0,0,8.5,3,9.8,3s1.4-0.9,1.4-0.9v-4.4v-0.5c0,0,2.2-0.5,2.4-1.1
		c0.1-0.5-3.7-5-3.4-6.3c0.3-1.2,1-6.8-3.9-10.2"/>
	<path class="st2" d="M36.3,22.3h-2l-0.5-1.5c0,0-5.4,0.9-7.1,3h-5.9"/>
	<path class="st5" d="M33.1,24.7c0.5,0,0.9-0.4,0.9-0.9c0-0.5-0.4-0.9-0.9-0.9s-0.9,0.4-0.9,0.9C32.2,24.3,32.6,24.7,33.1,24.7z"/>
	<path class="st2" d="M18.5,33.8h3c0.5,0,1.1,0.5,1.1,1.2s-0.4,1.2-1.1,1.2h-3"/>
</g>
</svg>
