<svg id="Layer_1" data-name="Layer 1" xmlns="http://www.w3.org/2000/svg" viewBox="0 0 201 200"><defs><style>.cls-1{fill:#6a4bff;}.cls-2{fill:#c1b1ff;}.cls-3{fill:#fff;}.cls-4,.cls-5,.cls-6{fill:none;stroke-linecap:round;stroke-linejoin:round;stroke-width:3px;}.cls-4,.cls-5{stroke:#fff;}.cls-5{stroke-dasharray:1.01 6.05;}.cls-6{stroke:#c1b1ff;}</style></defs><rect class="cls-1" x="0.24" y="-0.75" width="200" height="200"/><path class="cls-2" d="M78.56,55.05V71.66H95.17A16.62,16.62,0,1,1,78.56,55.05Z"/><path class="cls-3" d="M85,49.35a16.7,16.7,0,0,1,11,4.21A16.39,16.39,0,0,1,101.61,66H85Z"/><polyline class="cls-4" points="103.06 174.02 114.12 180.31 184.07 139.92 184.07 59.15 114.12 18.77 105.62 23.68"/><polyline class="cls-5" points="106.84 23.86 103.72 24.77 44.17 59.15 44.17 139.92 99.27 171.49 103.06 174.02"/><line class="cls-4" x1="130.71" y1="130.49" x2="130.71" y2="79.22"/><line class="cls-4" x1="118.43" y1="130.49" x2="118.43" y2="89.56"/><line class="cls-4" x1="105.99" y1="130.49" x2="105.99" y2="98.46"/><line class="cls-4" x1="93.54" y1="130.49" x2="93.54" y2="104.62"/><line class="cls-4" x1="81.27" y1="130.49" x2="81.27" y2="107.47"/><line class="cls-4" x1="68.06" y1="131.58" x2="142.72" y2="131.58"/><polygon class="cls-6" points="163.88 138.66 163.88 57.89 93.93 17.5 23.98 57.89 23.98 138.66 93.93 179.05 163.88 138.66"/></svg>