<?xml version="1.0" encoding="utf-8"?>
<!-- Generator: Adobe Illustrator 25.2.3, SVG Export Plug-In . SVG Version: 6.00 Build 0)  -->
<svg version="1.1" id="Слой_1" xmlns="http://www.w3.org/2000/svg" xmlns:xlink="http://www.w3.org/1999/xlink" x="0px" y="0px"
	 viewBox="0 0 149 142.5" style="enable-background:new 0 0 149 142.5;" xml:space="preserve">
<style type="text/css">
	.st0{fill:none;stroke:#FFFFFF;stroke-width:3;stroke-linecap:round;stroke-linejoin:round;stroke-miterlimit:10;}
	.st1{fill:none;stroke:#C1B1FF;stroke-width:3;stroke-linecap:round;stroke-linejoin:round;stroke-miterlimit:10;}
	
		.st2{fill:none;stroke:#C1B1FF;stroke-width:3;stroke-linecap:round;stroke-linejoin:round;stroke-miterlimit:10;stroke-dasharray:1,9;}
	.st3{fill:none;stroke:#C1B1FF;stroke-width:2;stroke-linecap:round;stroke-linejoin:round;stroke-miterlimit:10;}
</style>
<g>
	<path class="st0" d="M112,56.6c2.3,4-2.6,8.8-2.9,9.4c-1.2,2.1-2.6,2-3.6,3.6c-1.7,2.7,0.6,6,2.2,11.6c0.9,3.2,3.7,13-0.4,16.9
		c-2.7,2.6-7.2,1.7-7.8,1.6c-2.8-0.6-2.9-4.5-6.3-8.1c-1.7-1.8-6.3-2.8-9-7.7c-3-5.4-1.8-5.8-3.8-8c-1.9-2.2-10.2-3.8-13.1-6.9
		c-3.4-3.7-3-10.8-1-15.1c1.3-2.9,3-4.8,7.4-7.9"/>
	<path class="st0" d="M32,66.5c10.3-1.5,13.8,0.4,15.2,2.4c1.9,3-1,6.2,1.5,10.4c2,3.4,5,3,7.1,7.1c0.7,1.3,1.8,3.5,1.2,5.9
		c-1,3.9-5.4,3.7-7.4,8.3c-1.3,2.9-0.7,5.6-0.6,6.2c0.9,3.9,5,4.8,4.7,6.5c-0.1,0.7-1,1.5-3.6,2.2"/>
	<path class="st1" d="M94.6,41.8c14.6,7,24.6,21.4,24.6,38.1c0,23.5-20,42.6-44.7,42.6"/>
	<path class="st1" d="M65.9,121.7c-20.6-3.8-36.1-21.1-36.1-41.8c0-17,10.5-31.7,25.6-38.5"/>
	<path class="st1" d="M104.8,125.6c-8.8,5.3-19.2,8.3-30.3,8.3c-31.3,0-56.7-24.2-56.7-54.1c0-10.3,3-19.9,8.2-28.1"/>
	<path class="st2" d="M126.7,58.7c2.9,6.5,4.5,13.6,4.5,21.1c0,18.8-10.1,35.4-25.4,45.1"/>
	<path class="st1" d="M106,34.9c7.7,4.9,14,11.5,18.5,19.3"/>
	<path class="st1" d="M76.6,58.1"/>
	<line class="st1" x1="51.5" y1="11" x2="58.6" y2="24.8"/>
	<line class="st1" x1="71.2" y1="27.2" x2="62.4" y2="10"/>
	<line class="st1" x1="84.5" y1="29.7" x2="74.4" y2="10"/>
	<line class="st1" x1="64.7" y1="26.5" x2="51.5" y2="37.6"/>
	<line class="st1" x1="77.7" y1="29.2" x2="61.2" y2="43"/>
	<line class="st1" x1="90.7" y1="32" x2="74.5" y2="45.6"/>
	<path class="st1" d="M130.5,29.1c-2,9.5-12,15.4-12,15.4s-6.8-9.4-4.8-18.9s12-15.4,12-15.4S132.5,19.6,130.5,29.1z"/>
	<line class="st3" x1="125.7" y1="10.2" x2="118.5" y2="44.5"/>
	<line class="st3" x1="121.4" y1="30.5" x2="130.3" y2="25.9"/>
	<line class="st3" x1="120.8" y1="29.7" x2="114.7" y2="22.5"/>
	<path class="st1" d="M93.2,19.5c8.4,7.2,13.2,15.4,13.2,15.4s-20,14.4-40.1,10.2S33.7,19.6,33.7,19.6s20-14.4,40.1-10.2
		c4.4,0.9,8.4,2.7,12,4.8"/>
	<line class="st1" x1="33.7" y1="19.6" x2="105.5" y2="34.7"/>
</g>
</svg>
