<?xml version="1.0" encoding="utf-8"?>
<!-- Generator: Adobe Illustrator 25.2.3, SVG Export Plug-In . SVG Version: 6.00 Build 0)  -->
<svg version="1.1" id="Layer_1" xmlns="http://www.w3.org/2000/svg" xmlns:xlink="http://www.w3.org/1999/xlink" x="0px" y="0px"
	 viewBox="0 0 48 48" style="enable-background:new 0 0 48 48;" xml:space="preserve">
<style type="text/css">
	.st0{fill:#6A4BFF;}
	.st1{fill:none;stroke:#FFFFFF;stroke-width:0.6978;stroke-miterlimit:10;}
	.st2{fill:none;stroke:#FFFFFF;stroke-width:0.6793;stroke-miterlimit:10;}
	.st3{fill:none;stroke:#C1B1FF;stroke-width:0.808;stroke-linecap:round;stroke-linejoin:round;stroke-miterlimit:10;}
	.st4{fill:none;stroke:#FFFFFF;stroke-width:1.163;stroke-linecap:round;stroke-linejoin:round;stroke-miterlimit:10;}
	.st5{fill:none;stroke:#FFFFFF;stroke-width:0.6978;stroke-linecap:round;stroke-linejoin:round;stroke-miterlimit:10;}
	.st6{fill:#C1B1FF;}
</style>
<rect class="st0" width="48" height="48"/>
<g>
	<path class="st1" d="M38.9,19.2c1,0,1.8-0.8,1.8-1.8c0-1-0.8-1.8-1.8-1.8c-1,0-1.8,0.8-1.8,1.8C37.1,18.4,37.9,19.2,38.9,19.2z"/>
	<path class="st1" d="M30,11.2c1,0,1.8-0.8,1.8-1.8c0-1-0.8-1.8-1.8-1.8c-1,0-1.8,0.8-1.8,1.8C28.1,10.4,28.9,11.2,30,11.2z"/>
	<path class="st1" d="M17.7,11.2c1,0,1.8-0.8,1.8-1.8c0-1-0.8-1.8-1.8-1.8c-1,0-1.8,0.8-1.8,1.8C15.9,10.4,16.7,11.2,17.7,11.2z"/>
	<path class="st1" d="M9.1,19.2c1,0,1.8-0.8,1.8-1.8c0-1-0.8-1.8-1.8-1.8c-1,0-1.8,0.8-1.8,1.8C7.3,18.4,8.1,19.2,9.1,19.2z"/>
	<path class="st1" d="M9.8,31.7c1,0,1.8-0.8,1.8-1.8c0-1-0.8-1.8-1.8-1.8S8,28.9,8,29.9C8,30.9,8.8,31.7,9.8,31.7z"/>
	<path class="st1" d="M17.7,40.4c1,0,1.8-0.8,1.8-1.8c0-1-0.8-1.8-1.8-1.8c-1,0-1.8,0.8-1.8,1.8C15.9,39.6,16.7,40.4,17.7,40.4z"/>
	<path class="st1" d="M30.3,40.4c1,0,1.8-0.8,1.8-1.8c0-1-0.8-1.8-1.8-1.8c-1,0-1.8,0.8-1.8,1.8C28.5,39.6,29.3,40.4,30.3,40.4z"/>
	<path class="st1" d="M38.1,31.7c1,0,1.8-0.8,1.8-1.8c0-1-0.8-1.8-1.8-1.8c-1,0-1.8,0.8-1.8,1.8C36.3,30.9,37.1,31.7,38.1,31.7z"/>
	<path class="st2" d="M24,33.5c5.6,0,10.2-4.5,10.2-10.1S29.6,13.3,24,13.3c-5.6,0-10.2,4.5-10.2,10.1S18.4,33.5,24,33.5z"/>
	<path class="st3" d="M14.4,30.7c-0.2-0.2-0.3-0.6-0.6-0.8c-1.3-1.8-1.9-4.1-1.9-6.5c0-2.9,1-5.5,2.7-7.7c0.1-0.2,0.3-0.3,0.5-0.6
		c0.2-0.2,0.5-0.5,0.8-0.8"/>
	<path class="st3" d="M31.4,32.8c-2.1,1.6-4.7,2.6-7.6,2.6c-3.1,0-6-1.1-8-3.1"/>
	<path class="st3" d="M33.3,15.8c0.1,0.1,0.2,0.2,0.3,0.3c1.5,2.1,2.4,4.6,2.4,7.2c0,2.5-0.8,4.8-2.1,6.8c-0.1,0.2-0.3,0.5-0.6,0.7"
		/>
	<path class="st3" d="M23.9,11.3c2.1,0,4,0.6,5.7,1.5"/>
	<path class="st4" d="M19.9,26.1c0,1.5,1.3,2.7,2.7,2.7h2.7c1.5,0,2.7-1.3,2.7-2.7c0-1.5-1.3-2.7-2.7-2.7h-2.7
		c-1.5,0-2.7-1.3-2.7-2.7s1.3-2.7,2.7-2.7h2.7c1.3,0,2.3,0.8,2.6,1.9c0.1,0.2,0.1,0.6,0.1,0.8"/>
	<path class="st4" d="M23.9,16.2v14.4"/>
	<path class="st1" d="M20.1,13.7L18.6,11"/>
	<path class="st5" d="M27.7,13.7l1.6-2.6"/>
	<path class="st1" d="M14.5,19l-3.7-0.8"/>
	<path class="st1" d="M11.5,29.4l3.1-1.4"/>
	<path class="st1" d="M36.3,29.4l-3-1.4"/>
	<path class="st1" d="M33.4,19l3.8-0.8"/>
	<path class="st1" d="M18.6,36.9l1.7-3.8"/>
	<path class="st1" d="M29.7,36.8L28,33.1"/>
	<path class="st6" d="M31,14.1c0.3,0,0.5-0.2,0.5-0.5c0-0.3-0.2-0.5-0.5-0.5s-0.5,0.2-0.5,0.5C30.5,13.9,30.7,14.1,31,14.1z"/>
	<path class="st6" d="M32.4,15.2c0.3,0,0.5-0.2,0.5-0.5c0-0.3-0.2-0.5-0.5-0.5c-0.3,0-0.5,0.2-0.5,0.5C31.9,15,32.1,15.2,32.4,15.2z
		"/>
</g>
</svg>
