<?xml version="1.0" encoding="utf-8"?>
<!-- Generator: Adobe Illustrator 25.2.3, SVG Export Plug-In . SVG Version: 6.00 Build 0)  -->
<svg version="1.1" id="Слой_1" xmlns="http://www.w3.org/2000/svg" xmlns:xlink="http://www.w3.org/1999/xlink" x="0px" y="0px"
	 viewBox="0 0 149 142.5" style="enable-background:new 0 0 149 142.5;" xml:space="preserve">
<style type="text/css">
	.st0{fill:none;stroke:#C1B1FF;stroke-width:3.3948;stroke-linecap:round;stroke-linejoin:round;stroke-miterlimit:10;}
	
		.st1{fill:none;stroke:#C1B1FF;stroke-width:3.3948;stroke-linecap:round;stroke-linejoin:round;stroke-miterlimit:10;stroke-dasharray:1.1316,10.1844;}
	.st2{fill:none;stroke:#FFFFFF;stroke-width:3.3948;stroke-linecap:round;stroke-linejoin:round;stroke-miterlimit:10;}
</style>
<g>
	<path class="st0" d="M83.2,62.9C83.2,69.6,77.7,75,71,75s-12.2-5.4-12.2-12.1S64.3,50.8,71,50.8"/>
	<path class="st0" d="M104.2,62.9c0,18.1-14.8,32.8-33.1,32.8S37.9,81.1,37.9,62.9c0-5,1.1-9.7,3.1-13.9"/>
	<path class="st1" d="M16.8,62.9c0-29.7,24.3-53.7,54.3-53.7"/>
	<path class="st0" d="M92.9,112.1c-6.7,2.9-14.1,4.5-21.9,4.5c-27.7,0-50.5-20.5-53.9-47"/>
	<path class="st0" d="M125.3,62.9c0,17.8-8.8,33.6-22.3,43.4"/>
	<path class="st0" d="M64.9,133c-24.9-2.1-46.1-16.9-57-37.9"/>
	<path class="st1" d="M142.1,62.9c0,38.9-31.8,70.4-71.1,70.4"/>
	<path class="st2" d="M63.5,25.7l7.6,4.4c-9.5,0-18.1,4-24.1,10.3"/>
	<line class="st2" x1="65.3" y1="35.6" x2="71.1" y2="30.1"/>
</g>
</svg>
