<?xml version="1.0" encoding="utf-8"?>
<!-- Generator: Adobe Illustrator 25.2.3, SVG Export Plug-In . SVG Version: 6.00 Build 0)  -->
<svg version="1.1" id="Слой_1" xmlns="http://www.w3.org/2000/svg" xmlns:xlink="http://www.w3.org/1999/xlink" x="0px" y="0px"
	 viewBox="0 0 149 142.5" style="enable-background:new 0 0 149 142.5;" xml:space="preserve">
<style type="text/css">
	.st0{fill:none;stroke:#C1B1FF;stroke-width:3;stroke-linecap:round;stroke-linejoin:round;stroke-miterlimit:10;}
	
		.st1{fill:none;stroke:#C1B1FF;stroke-width:3;stroke-linecap:round;stroke-linejoin:round;stroke-miterlimit:10;stroke-dasharray:1,9;}
	.st2{fill:none;stroke:#FFFFFF;stroke-width:3;stroke-linecap:round;stroke-linejoin:round;stroke-miterlimit:10;}
</style>
<g>
	<g>
		<path class="st0" d="M120.7,65.3c10.5-12.2,17.4-27.5,18.7-44.2l-6.2,6.9"/>
		<line class="st0" x1="139.4" y1="21.1" x2="143.5" y2="29.3"/>
	</g>
	<g>
		<path class="st0" d="M93.2,83c9.9-11.3,14.9-26.2,17.1-43.6l3.8,8.6"/>
		<path class="st1" d="M68.4,99.9c8.9-3.5,16-8.1,21.7-13.6"/>
		<path class="st1" d="M5.5,107.4c0,0,19.2,0.3,26.9-0.2c11.3-0.8,21.1-2.5,29.5-5.1"/>
		<line class="st0" x1="110.3" y1="39.5" x2="103.3" y2="46.6"/>
	</g>
	<g>
		<path class="st0" d="M72.6,71.4l7.5-6.7c-4.9,37-36.3,66-74.6,67.7V10"/>
		<line class="st0" x1="80" y1="64.7" x2="84" y2="73.3"/>
	</g>
	<line class="st0" x1="143.2" y1="132.5" x2="62.7" y2="132.5"/>
	<line class="st0" x1="143.2" y1="84.8" x2="114.2" y2="84.8"/>
	<line class="st2" x1="143.2" y1="120.6" x2="79.2" y2="120.6"/>
	<line class="st0" x1="143.2" y1="108.7" x2="91.7" y2="108.7"/>
	<line class="st2" x1="143.2" y1="96.8" x2="103.3" y2="96.8"/>
</g>
</svg>
