<?xml version="1.0" encoding="utf-8"?>
<!-- Generator: Adobe Illustrator 25.2.3, SVG Export Plug-In . SVG Version: 6.00 Build 0)  -->

<!-- None: #FFFFFF  -->
<svg version="1.1" id="Layer_1" xmlns="http://www.w3.org/2000/svg" xmlns:xlink="http://www.w3.org/1999/xlink" x="0px" y="0px"
	 viewBox="0 0 48 48" style="enable-background:new 0 0 48 48;" xml:space="preserve">
<style type="text/css">
	.st0{fill:none;}
	.st1{fill:#C1B1FF;}
	.st2{fill:none;stroke:#C1B1FF;stroke-width:0.512;stroke-linecap:round;stroke-linejoin:round;stroke-miterlimit:10;}
	.st3{fill:none;stroke:#504EFF;stroke-width:0.8603;stroke-miterlimit:10;}
	.st4{fill:none;stroke:#504EFF;stroke-width:0.768;stroke-miterlimit:10;}
	.st5{fill:none;stroke:#504EFF;stroke-width:0.512;stroke-linecap:round;stroke-linejoin:round;stroke-miterlimit:10;}
	.st6{fill:none;stroke:#504EFF;stroke-width:0.768;stroke-linecap:round;stroke-linejoin:round;stroke-miterlimit:10;}
	.st7{fill:#504EFF;}
	.st8{fill:none;stroke:#C1B1FF;stroke-width:0.5676;stroke-linecap:round;stroke-linejoin:round;stroke-miterlimit:10;}
</style>
<rect class="st0" width="48" height="48"/>
<g>
	<path class="st1" d="M23.5,17.7v-3.3h-0.2c-0.1,0-0.3,0.1-0.3,0.2l-0.1,0.7c0,0.2-0.2,0.5-0.6,0.6c-0.2,0-0.5,0.1-0.7,0.1
		c-0.2,0.1-0.6,0-0.7-0.2l-0.3-0.5c-0.1-0.1-0.2-0.1-0.5-0.1l-0.3,0.2c-0.1,0.1-0.2,0.2-0.1,0.3l0.2,0.6c0.1,0.2,0,0.6-0.2,0.7
		c-0.1,0.1-0.3,0.3-0.5,0.5c-0.2,0.2-0.5,0.3-0.7,0.2L18,17.5c-0.1,0-0.3,0-0.3,0.1L17.4,18c-0.2,0.3-0.2,0.6-0.1,0.7l0.5,0.5
		c0.2,0.2,0.2,0.5,0.2,0.7c-0.1,0.2-0.1,0.5-0.1,0.7c0,0.2-0.2,0.5-0.6,0.6l-0.7,0.1c-0.1,0-0.2,0.1-0.2,0.3V22
		c0,0.1,0.1,0.3,0.2,0.3l0.7,0.1c0.2,0,0.5,0.2,0.6,0.6c0,0.2,0.1,0.5,0.1,0.7c0.1,0.2,0,0.6-0.2,0.7l-0.5,0.5c-0.1-0.1-0.1,0,0,0.1
		l0.2,0.5c0.1,0.1,0.2,0.2,0.3,0.1l0.6-0.2c0.2-0.1,0.6,0,0.7,0.2c0.1,0.1,0.3,0.3,0.5,0.5c0.2,0.2,0.3,0.5,0.2,0.7l-0.2,0.6
		c0,0.1,0,0.3,0.1,0.3l0.3,0.2c0.1,0.1,0.3,0,0.5-0.1l0.5-0.5c0.2-0.2,0.5-0.2,0.7-0.2c0.2,0.1,0.5,0.1,0.7,0.1
		c0.2,0,0.5,0.2,0.6,0.6l0.1,0.7c0,0.1,0.1,0.2,0.3,0.2h0.2v-3.2c-2.2,0-3.9-1.7-3.9-3.9C19.7,19.5,21.4,17.7,23.5,17.7z"/>
	<path class="st2" d="M18.2,36.3h8"/>
	<path class="st3" d="M27.6,41.3h-7.2c-0.2,0-0.3-0.2-0.3-0.5v-1.6c0-0.2,0.1-0.5,0.3-0.5h7.2c0.2,0,0.3,0.2,0.3,0.5v1.6
		C28,41.1,27.8,41.3,27.6,41.3z"/>
	<path class="st4" d="M23.9,34.2v-4.8V26v-8v-3.4V10"/>
	<path class="st4" d="M28.2,24.5h-4c-0.1,0-0.2-0.1-0.2-0.2v-5.1c0-0.1,0.1-0.2,0.2-0.2h4c0.1,0,0.2,0.1,0.2,0.2v5.1
		C28.4,24.3,28.3,24.5,28.2,24.5z"/>
	<path class="st4" d="M29.1,38.4H18.9c-0.5,0-0.8-0.3-0.8-0.8V35c0-0.5,0.3-0.8,0.8-0.8h10.2c0.5,0,0.8,0.3,0.8,0.8v2.6
		C29.9,38.1,29.6,38.4,29.1,38.4z"/>
	<path class="st5" d="M26.7,15.5c0.5,0,0.9-0.4,0.9-0.9c0-0.5-0.4-0.9-0.9-0.9c-0.5,0-0.9,0.4-0.9,0.9
		C25.8,15.1,26.2,15.5,26.7,15.5z"/>
	<path class="st5" d="M33,23.7c0.5,0,0.9-0.4,0.9-0.9c0-0.5-0.4-0.9-0.9-0.9c-0.5,0-0.9,0.4-0.9,0.9C32.1,23.3,32.5,23.7,33,23.7z"
		/>
	<path class="st5" d="M32.1,22.7h-3.5"/>
	<path class="st5" d="M28.5,20.1h1.9V18"/>
	<path class="st5" d="M26.7,15.5v3.3"/>
	<path class="st5" d="M25.8,24.5v1.5h1.8v1.7"/>
	<path class="st6" d="M34.9,24.2c0-0.2,0.1-0.5,0.1-0.6c0.1-0.7,0.2-1.4,0.2-2.2c0-2.5-0.8-4.7-2.2-6.6c-0.2-0.3-0.5-0.6-0.7-0.9
		c-0.2-0.3-0.6-0.6-0.9-0.9c-0.1-0.1-0.3-0.2-0.5-0.5c-0.3-0.2-0.7-0.6-1-0.8c-0.2-0.1-0.5-0.2-0.7-0.5c-0.3-0.2-0.7-0.3-1-0.5
		c-0.2-0.1-0.6-0.2-0.8-0.3c-0.3-0.1-0.8-0.2-1.1-0.3c-0.2-0.1-0.6-0.1-0.8-0.1c-0.5-0.1-1-0.1-1.5-0.1c-6.3,0-11.3,5-11.3,11.3
		c0,4.3,2.5,8.2,6.1,10h-0.1c0,0,1.4,0.6,1.4,1.6V34"/>
	<path class="st7" d="M34.3,26.4c0.3,0,0.5-0.2,0.5-0.5c0-0.3-0.2-0.5-0.5-0.5c-0.3,0-0.5,0.2-0.5,0.5
		C33.9,26.2,34.1,26.4,34.3,26.4z"/>
	<path class="st7" d="M33.4,28.1c0.3,0,0.5-0.2,0.5-0.5c0-0.3-0.2-0.5-0.5-0.5c-0.3,0-0.5,0.2-0.5,0.5C33,27.9,33.2,28.1,33.4,28.1z
		"/>
	<path class="st7" d="M32.1,29.8c0.3,0,0.5-0.2,0.5-0.5s-0.2-0.5-0.5-0.5c-0.3,0-0.5,0.2-0.5,0.5S31.8,29.8,32.1,29.8z"/>
	<path class="st7" d="M30.6,31c0.3,0,0.5-0.2,0.5-0.5c0-0.3-0.2-0.5-0.5-0.5c-0.3,0-0.5,0.2-0.5,0.5C30.1,30.8,30.3,31,30.6,31z"/>
	<path class="st7" d="M28.9,32.1c0.3,0,0.5-0.2,0.5-0.5c0-0.3-0.2-0.5-0.5-0.5c-0.3,0-0.5,0.2-0.5,0.5
		C28.4,31.9,28.6,32.1,28.9,32.1z"/>
	<path class="st2" d="M30.5,17.9c0.5,0,0.9-0.4,0.9-0.9c0-0.5-0.4-0.9-0.9-0.9c-0.5,0-0.9,0.4-0.9,0.9C29.6,17.5,30,17.9,30.5,17.9z
		"/>
	<path class="st2" d="M27.6,29.5c0.5,0,0.9-0.4,0.9-0.9s-0.4-0.9-0.9-0.9c-0.5,0-0.9,0.4-0.9,0.9S27.1,29.5,27.6,29.5z"/>
	<path class="st8" d="M24,7.6V4.9"/>
	<path class="st8" d="M27.3,8l0.6-2.6"/>
	<path class="st8" d="M30.9,9.4l1.4-2.4"/>
	<path class="st8" d="M34.1,11.8l1.9-2"/>
	<path class="st8" d="M36.5,14.9l2.4-1.4"/>
	<path class="st8" d="M38,18.5l2.6-0.7"/>
	<path class="st8" d="M38.3,22.5l2.7,0.1"/>
	<path class="st8" d="M37.6,26.4l2.6,0.8"/>
	<path class="st8" d="M35.9,29.9l2.3,1.5"/>
	<path class="st8" d="M33.3,32.9l1.8,2"/>
	<path class="st8" d="M15.1,33.2l-1.7,2.2"/>
	<path class="st8" d="M12.4,30.4L10.1,32"/>
	<path class="st8" d="M10.6,26.8l-2.6,1"/>
	<path class="st8" d="M9.7,23.1l-2.7,0.2"/>
	<path class="st8" d="M9.9,19.1l-2.6-0.6"/>
	<path class="st8" d="M11.3,15.4l-2.4-1.3"/>
	<path class="st8" d="M13.5,12.2l-2-1.8"/>
	<path class="st8" d="M16.6,9.7l-1.5-2.3"/>
	<path class="st8" d="M20.2,8.2l-0.8-2.7"/>
	<path class="st8" d="M24.1,7.6V4.9"/>
</g>
</svg>
