<?xml version="1.0" encoding="utf-8"?>
<!-- Generator: Adobe Illustrator 25.2.3, SVG Export Plug-In . SVG Version: 6.00 Build 0)  -->
<svg version="1.1" id="Layer_1" xmlns="http://www.w3.org/2000/svg" xmlns:xlink="http://www.w3.org/1999/xlink" x="0px" y="0px"
	 viewBox="0 0 48 48" style="enable-background:new 0 0 48 48;" xml:space="preserve">
<style type="text/css">
	.st0{fill:#6A4BFF;}
	.st1{fill:#FFFFFF;}
	.st2{fill:none;stroke:#C1B1FF;stroke-width:0.718;stroke-linecap:round;stroke-miterlimit:10;}
	.st3{fill:#C1B1FF;}
	.st4{fill:none;stroke:#FFFFFF;stroke-width:0.6117;stroke-linecap:round;stroke-linejoin:round;stroke-miterlimit:10;}
	.st5{fill:none;stroke:#FFFFFF;stroke-width:0.6829;stroke-linecap:round;stroke-linejoin:round;stroke-miterlimit:10;}
</style>
<rect class="st0" width="48" height="48"/>
<g>
	<path class="st1" d="M34.3,16.2c1,0,1.9-0.8,1.9-1.9s-0.8-1.9-1.9-1.9s-1.9,0.8-1.9,1.9S33.3,16.2,34.3,16.2z"/>
	<path class="st2" d="M43.1,13.7c0-4.4-3.6-8-8-8"/>
	<path class="st2" d="M40.6,13.9c0-3.3-2.6-5.9-5.9-5.9"/>
	<path class="st2" d="M38.2,14.2c0-2-1.6-3.8-3.8-3.8"/>
	<path class="st3" d="M24,25.3c-0.3,0-0.5,0.3-0.5,0.5v1.4v1.1v1.4c0,0.3,0.3,0.5,0.5,0.5c0.3,0,0.5-0.3,0.5-0.5v-1.4v-1.1v-1.4
		C24.5,25.6,24.3,25.3,24,25.3z"/>
	<path class="st3" d="M21,25.4c-0.3-0.1-0.4-0.1-0.6-0.1c-0.9,0-1.6,0.8-1.6,1.6v0.3v1.1v0.3c0,0.9,0.8,1.6,1.6,1.6
		c0.3,0,0.5,0,0.6-0.1c0.5-0.3,1-0.8,1-1.5v-1.6C22,26.2,21.7,25.7,21,25.4z M21,28.6v0.1c0,0.1,0,0.1-0.1,0.3l-0.1,0.1
		c-0.1,0.1-0.3,0.1-0.4,0.1c-0.4,0-0.6-0.3-0.6-0.6v-0.3v-1.1v-0.3c0-0.4,0.3-0.6,0.6-0.6c0.1,0,0.3,0,0.4,0.1l0.1,0.1
		c0,0,0.1,0.1,0.1,0.3v0.1V28.6z"/>
	<path class="st3" d="M28.3,27.2v1.1v0.3c0,0.1-0.1,0.4-0.1,0.4s0,0-0.1,0.1c-0.1,0.1-0.3,0.1-0.4,0.1c0,0,0,0-0.1,0s-0.1,0-0.3,0
		c-0.1,0-0.1-0.1-0.3-0.1c0,0-0.1-0.1-0.1-0.3c0-0.1,0-0.1,0-0.3v-1.6c0-0.1,0-0.1,0-0.3s0.1-0.1,0.1-0.3c0,0,0.1-0.1,0.3-0.1
		c0.1,0,0.1,0,0.3,0c0,0,0,0,0.1,0s0.3,0,0.4,0.1c0,0,0,0,0.1,0.1c0.1,0.1,0.1,0.3,0.1,0.4V27.2z M29.2,27.4v-0.3v-0.3
		c0-0.9-0.6-1.5-1.5-1.6c0,0,0,0-0.1,0c-0.4,0-0.8,0.1-1,0.4c-0.4,0.3-0.5,0.8-0.5,1.3v0.3v1.1v0.3c0,0.5,0.3,0.9,0.5,1.3
		c0.3,0.3,0.6,0.4,1,0.4c0,0,0,0,0.1,0c0.3,0,0.5-0.1,0.8-0.3L29.2,27.4z"/>
	<path class="st3" d="M16.8,25.3c-0.3,0-0.5,0.3-0.5,0.5v3.9c0,0.3,0.3,0.5,0.4,0.5c0.3,0,0.5-0.3,0.5-0.5v-1.4v-1.1v-1.4
		C17.3,25.6,17,25.3,16.8,25.3z"/>
	<path class="st3" d="M13.1,25.3c-0.1,0.4-0.3,0.6-0.3,1c0.1,0,0.1,0,0.3,0s0.4,0.1,0.5,0.3c0,0,0.1,0.1,0.1,0.3s0,0.1,0,0.3v1.6
		c0,0.1,0,0.1,0,0.3s-0.1,0.1-0.1,0.3c-0.1,0.1-0.3,0.3-0.5,0.3H13c0.1,0.4,0.1,0.6,0.3,0.9c0.8-0.1,1.4-0.8,1.4-1.6v-1.6
		C14.8,26.1,14,25.3,13.1,25.3z M11.6,26.9v1.6v0.1h1v-0.1v-1.6c0-0.1,0-0.1,0-0.3c0,0,0,0,0-0.1h-1C11.6,26.7,11.6,26.8,11.6,26.9z
		"/>
	<path class="st4" d="M24,20.1c2.3,1,4.1,3,4.6,5.5"/>
	<path class="st4" d="M21.5,15.3v4.1H21c-3.6,0-6.9,2.5-7.8,5.9c-0.1,0.4-0.1,0.6-0.3,1c0,0.1,0,0.3,0,0.3h-0.4h-1H8.5"/>
	<path class="st4" d="M8.5,28.7h3h1h0.4c0,0.1,0,0.4,0.1,0.5c0.1,0.4,0.1,0.6,0.3,0.9c0.9,2.4,2.9,4.3,5.3,5"/>
	<path class="st4" d="M18.4,37.5c-3.4-0.9-6.1-3.3-7.3-6.5"/>
	<path class="st4" d="M30.9,30c-0.9,3.8-3.9,6.6-7.6,7.5"/>
	<path class="st4" d="M24.5,17.7c3.3,1.3,5.8,4,6.5,7.4"/>
	<path class="st4" d="M11.1,24.1c1.1-3.4,4-6,7.5-6.8"/>
	<path class="st4" d="M24.4,15.7c1.5,0.5,3,1.3,4.3,2.1"/>
	<path class="st4" d="M10.1,34.5c-1.3-1.9-1.9-4.3-1.9-6.6c0-0.4,0-0.8,0-1.1c0.4-3.8,2.4-7.1,5.4-9.2"/>
	<path class="st5" d="M33.6,20.3c1.3,2.1,2,4.6,2,7.4c0,2-0.4,3.8-1.1,5.5c-0.9,2.1-2.1,3.9-3.8,5.4L29.4,37"/>
	<path class="st4" d="M33.2,30c-0.5,2.8-1.9,5.1-3.9,7"/>
	<path class="st4" d="M16.9,13.5c1.3-0.4,2.6-0.5,4-0.5c4.5,0,8.5,2,11.3,5.3l-1.6,1.4c1.8,2.1,2.8,4.8,2.9,7.6h-0.4h-4.1
		c0,4.4-3.6,8-8,8v4.8v0.1c2.3,0,4.5-0.6,6.3-1.8"/>
	<path class="st4" d="M12.5,15.7c-3.8,2.6-6.3,7-6.3,12c0,4,1.6,7.6,4.3,10.3l1.4-1.4c1.8,1.8,4,3,6.6,3.5"/>
	<path class="st5" d="M12.3,39.6c2.4,1.8,5.4,2.8,8.5,2.8c2.8,0,5.3-0.8,7.5-2l-1.1-1.6"/>
	<path class="st4" d="M14.6,14.4l1.1,1.8c1.5-0.6,3.3-1,5-1c0.3,0,0.5,0,0.6,0"/>
</g>
</svg>
