<?xml version="1.0" encoding="utf-8"?>
<!-- Generator: Adobe Illustrator 25.2.3, SVG Export Plug-In . SVG Version: 6.00 Build 0)  -->
<svg version="1.1" id="Layer_1" xmlns="http://www.w3.org/2000/svg" xmlns:xlink="http://www.w3.org/1999/xlink" x="0px" y="0px"
	 viewBox="0 0 48 48" style="enable-background:new 0 0 48 48;" xml:space="preserve">
<style type="text/css">
	.st0{fill:#6A4BFF;}
	.st1{fill:none;stroke:#FFFFFF;stroke-width:0.9664;stroke-miterlimit:10;}
	.st2{fill:none;stroke:#FFFFFF;stroke-width:0.9664;stroke-linecap:round;stroke-miterlimit:10;}
	.st3{fill:none;stroke:#C1B1FF;stroke-width:0.9664;stroke-linecap:round;stroke-linejoin:round;stroke-miterlimit:10;}
	.st4{fill:none;stroke:#C1B1FF;stroke-width:0.9664;stroke-miterlimit:10;}
	.st5{fill:none;stroke:#FFFFFF;stroke-width:0.9664;stroke-linecap:round;stroke-linejoin:round;stroke-miterlimit:10;}
	.st6{fill:#FFFFFF;}
	.st7{fill:none;stroke:#C1B1FF;stroke-width:0.6443;stroke-linecap:round;stroke-linejoin:round;stroke-miterlimit:10;}
	.st8{fill:none;stroke:#C1B1FF;stroke-width:0.6443;stroke-linecap:round;stroke-miterlimit:10;}
	.st9{fill:none;stroke:#FFFFFF;stroke-width:0.6443;stroke-linecap:round;stroke-miterlimit:10;}
	.st10{fill:none;stroke:#FFFFFF;stroke-width:0.6443;stroke-linecap:round;stroke-linejoin:round;stroke-miterlimit:10;}
	.st11{fill:none;stroke:#C1B1FF;stroke-width:0.9664;stroke-linecap:round;stroke-miterlimit:10;}
</style>
<rect class="st0" width="48" height="48"/>
<g>
	<path class="st1" d="M37.9,31.9v6.5"/>
	<path class="st1" d="M34.6,34.4v4.1"/>
	<path class="st2" d="M25.4,33.2c0,0,0.6,0.4,0.8,0.6c1.1,0.6,3,1.2,4.7,1.2c4.9,0,8.9-3.6,8.9-8.1c0-2.5-1.2-4.6-3.1-6.2
		c0,0-0.3-0.2-0.4-0.3"/>
	<path class="st1" d="M27.8,26.1c-2.4,3.1-3.5,6.1-2.4,7.1c1.2,1.1,4.7-0.8,7.8-4.2c3.1-3.5,4.6-7.1,3.4-8.2c-1.1-1-4.2,0.5-7.1,3.4
		"/>
	<path class="st3" d="M29.4,28.4l-3.4-5.7l6,2.7"/>
	<path class="st4" d="M26.1,22c0,0.5-0.4,1-1,1c-0.5,0-1-0.4-1-1c0-0.5,0.4-1,1-1C25.7,21.1,26.1,21.5,26.1,22z"/>
	<path class="st5" d="M24.5,41.4v-1.6c0-0.7,0.5-1.2,1.2-1.2H41v2.8"/>
	<path class="st5" d="M24.5,41.5H41"/>
	<path class="st6" d="M28,11.2c0,0.7-0.6,1.3-1.3,1.3c-0.7,0-1.3-0.6-1.3-1.3c0-0.7,0.6-1.3,1.3-1.3C27.4,9.9,28,10.5,28,11.2z"/>
	<path class="st4" d="M37.5,14c0,1.4-1.1,2.5-2.5,2.5s-2.5-1.1-2.5-2.5s1.1-2.5,2.5-2.5S37.5,12.6,37.5,14z"/>
	<path class="st7" d="M11.8,11.7h1.7"/>
	<path class="st8" d="M11.9,16h3.9"/>
	<path class="st7" d="M11.8,14.3h4.1"/>
	<path class="st5" d="M11.8,11.5l1.4-4.7c0.3-0.4,1-0.4,1.3,0l1.4,4.7v23.2h-4.1V11.5z"/>
	<path class="st9" d="M13.9,24.9v11.5"/>
	<path class="st10" d="M11.6,26.6L9.5,29v5.9h2.3"/>
	<path class="st10" d="M16,26.6l2.1,2.4v5.9h-2.5"/>
	<path class="st11" d="M12,36.3c0.1,0.2,0.6,1.9-0.6,3.4c-0.9,1.1-2.2,1.4-2.5,1.4"/>
	<path class="st11" d="M15.8,36.3c-0.1,0.2-0.6,1.9,0.6,3.4c0.9,1.1,2.2,1.4,2.5,1.4"/>
	<path class="st6" d="M14.2,23c0,0.2-0.1,0.3-0.3,0.3c-0.2,0-0.3-0.1-0.3-0.3s0.1-0.3,0.3-0.3C14,22.7,14.2,22.8,14.2,23z"/>
	<path class="st6" d="M9.5,16.4c0,0.7-0.6,1.3-1.3,1.3c-0.7,0-1.3-0.6-1.3-1.3c0-0.7,0.6-1.3,1.3-1.3C8.9,15.2,9.5,15.7,9.5,16.4z"
		/>
</g>
</svg>
